{"glyphs":{"0":{"ha":674,"x_min":43,"x_max":631,"o":"m 550 221 l 550 800 q 533 882 550 843 q 488 950 517 921 q 421 996 460 979 q 338 1013 382 1013 q 254 996 293 1013 q 186 950 215 979 q 140 882 157 921 q 124 800 124 843 l 124 221 q 140 138 124 176 q 186 71 157 100 q 254 25 215 42 q 338 8 293 8 q 421 25 382 8 q 488 71 460 42 q 533 138 517 100 q 550 221 550 176 m 338 1021 q 451 998 397 1021 q 544 935 504 975 q 608 841 585 894 q 631 728 631 788 l 631 293 q 608 179 631 232 q 544 86 585 126 q 451 23 504 46 q 338 0 397 0 q 223 23 276 0 q 129 86 169 46 q 66 179 89 126 q 43 293 43 232 l 43 728 q 66 841 43 788 q 129 935 89 894 q 223 998 169 975 q 338 1021 276 1021 z "},"1":{"ha":167,"x_min":43,"x_max":124,"o":"m 122 1021 q 124 1018 124 1019 l 124 4 l 124 1 q 119 0 122 0 l 47 0 q 46 1 46 0 q 43 3 43 1 l 43 4 l 43 944 q 46 949 43 946 l 117 1019 q 122 1021 118 1021 z "},"2":{"ha":674,"x_min":43,"x_max":631,"o":"m 631 150 q 589 42 631 83 q 481 0 547 0 l 47 0 q 43 4 43 0 l 43 150 q 66 264 43 211 q 128 356 89 317 q 221 417 168 394 q 335 443 274 440 q 419 460 379 444 q 488 504 458 476 q 533 570 517 532 q 550 654 550 608 l 550 800 q 533 882 550 843 q 488 950 517 921 q 421 996 460 979 q 338 1013 382 1013 q 192 963 246 1013 q 126 826 139 914 q 147 839 135 836 q 170 838 160 842 q 188 824 181 833 q 196 800 196 814 q 185 771 196 783 q 157 758 174 758 q 128 771 139 758 q 117 800 117 783 q 133 888 117 847 q 178 959 149 929 q 248 1005 207 989 q 338 1021 289 1021 q 451 997 397 1021 q 544 934 504 974 q 608 842 585 894 q 631 728 631 789 q 608 613 631 667 q 545 520 585 560 q 452 458 506 481 q 338 435 399 435 q 254 417 293 433 q 186 372 215 400 q 140 304 157 343 q 124 221 124 265 l 124 8 l 481 8 q 573 40 533 8 q 619 124 613 71 q 599 110 611 113 q 576 112 588 108 q 558 125 565 115 q 550 150 550 135 q 562 177 550 165 q 590 189 574 189 q 619 177 607 189 q 631 150 631 165 z "},"3":{"ha":674,"x_min":43,"x_max":631,"o":"m 631 293 q 608 179 631 232 q 544 86 585 126 q 451 23 504 46 q 338 0 397 0 q 223 23 276 0 q 129 86 169 46 q 66 179 89 126 q 43 293 43 232 q 46 297 43 297 q 50 297 46 297 l 122 224 q 124 221 124 224 q 140 138 124 176 q 186 71 157 100 q 254 25 215 42 q 338 8 293 8 q 419 25 381 8 q 485 71 457 42 q 531 138 514 100 q 549 221 549 176 l 550 367 q 549 388 550 371 q 542 429 547 406 q 523 479 536 453 q 486 528 510 506 q 426 564 463 550 q 338 578 390 578 q 267 569 297 578 q 213 545 236 560 q 175 512 190 531 q 150 472 160 493 q 134 433 139 451 q 126 399 129 414 q 124 367 124 382 q 119 361 124 361 q 115 367 115 361 q 118 400 114 382 q 126 435 121 415 q 143 476 132 456 q 230 565 176 543 q 338 588 283 588 q 392 599 367 588 q 437 628 418 610 q 467 673 456 647 q 478 728 478 699 l 478 872 q 467 927 478 901 q 436 972 456 953 q 392 1001 417 990 q 338 1013 367 1013 q 245 983 279 1013 q 200 900 211 953 q 220 911 208 910 q 242 908 232 913 q 260 895 253 904 q 268 872 268 886 q 256 844 268 857 q 228 832 244 832 q 199 844 211 832 q 188 872 188 857 q 199 938 188 910 q 232 985 211 967 q 280 1012 253 1003 q 338 1021 307 1021 q 423 1003 383 1021 q 492 956 463 986 q 540 886 522 926 q 557 800 557 846 q 544 724 557 760 q 508 659 531 688 q 452 611 485 631 q 382 583 419 592 q 481 549 436 575 q 560 484 526 522 q 612 397 593 446 q 631 293 631 347 z "},"4":{"ha":674,"x_min":43,"x_max":631,"o":"m 631 438 q 617 371 631 399 q 581 325 603 343 q 534 299 560 307 q 486 290 508 290 l 486 4 l 485 1 q 481 0 485 0 l 410 0 q 407 1 407 0 l 404 4 l 404 290 l 47 290 q 43 296 43 290 q 131 470 97 403 q 183 576 164 538 q 211 631 203 615 q 222 651 219 647 q 223 654 224 656 q 225 658 222 653 q 236 679 228 663 q 264 735 244 696 q 318 843 283 775 q 407 1019 353 911 q 410 1021 408 1021 l 481 1021 q 482 1020 482 1021 q 483 1019 482 1019 l 485 1019 q 485 1015 489 1015 l 126 297 l 481 297 q 511 301 490 297 q 554 317 532 304 q 595 351 576 329 q 619 411 614 374 q 590 397 608 397 q 562 410 574 397 q 550 438 550 422 q 562 466 550 454 q 590 478 574 478 q 619 466 607 478 q 631 438 631 454 z "},"5":{"ha":674,"x_min":43,"x_max":631,"o":"m 631 293 q 608 179 631 232 q 544 86 585 126 q 451 23 504 46 q 338 0 397 0 q 267 10 303 0 q 200 43 231 19 q 147 105 169 67 q 118 200 125 143 q 83 181 106 181 q 55 193 67 181 q 43 221 43 206 q 55 249 43 238 q 83 261 67 261 q 112 249 100 261 q 124 221 124 238 q 140 136 124 175 q 184 69 156 97 q 251 24 213 40 q 338 8 290 8 q 424 24 385 8 q 490 67 463 39 q 534 133 518 94 q 550 217 550 171 l 550 367 q 533 449 550 410 q 488 516 517 488 q 421 561 460 544 q 338 578 382 578 q 190 610 256 579 q 136 644 163 622 q 89 697 110 665 q 56 771 68 728 q 43 872 43 814 l 43 1018 q 47 1021 43 1021 l 410 1021 q 517 980 476 1021 q 557 872 557 939 q 545 844 557 857 q 518 832 533 832 q 489 844 500 832 q 478 872 478 857 q 489 900 478 889 q 518 911 500 911 q 549 897 536 911 q 535 940 546 919 q 506 977 524 961 q 463 1003 488 993 q 410 1013 439 1013 l 124 1013 l 124 800 q 140 717 124 756 q 186 649 157 678 q 254 604 215 621 q 338 588 293 588 q 433 571 382 588 q 528 519 485 554 q 601 428 572 483 q 631 293 631 372 z "},"6":{"ha":674,"x_min":43,"x_max":631,"o":"m 338 588 q 451 565 397 588 q 544 501 504 542 q 608 408 585 461 q 631 293 631 354 q 608 179 631 232 q 544 86 585 126 q 451 23 504 46 q 338 0 397 0 q 223 23 276 0 q 129 86 169 46 q 66 179 89 126 q 43 293 43 232 l 43 728 q 66 843 43 790 q 129 935 89 896 q 223 998 169 975 q 338 1021 276 1021 q 426 1004 386 1021 q 496 958 467 988 q 541 888 525 928 q 557 800 557 847 q 546 771 557 783 q 518 758 535 758 q 489 771 500 758 q 478 800 478 783 q 489 828 478 815 q 518 840 500 840 q 547 826 536 840 q 481 963 533 914 q 338 1013 428 1013 q 253 996 292 1013 q 185 951 214 979 q 141 883 157 922 q 124 800 125 844 q 122 611 121 704 q 124 422 124 518 q 199 545 144 503 q 338 588 254 588 m 338 8 q 421 25 382 8 q 488 71 460 42 q 533 138 517 100 q 550 221 550 176 l 550 367 q 533 449 550 410 q 488 516 517 488 q 421 561 460 544 q 338 578 382 578 q 256 563 294 578 q 188 519 217 547 q 141 451 158 490 q 124 367 124 413 l 124 221 q 140 138 124 176 q 186 71 157 100 q 254 25 215 42 q 338 8 293 8 z "},"7":{"ha":674,"x_min":43,"x_max":631,"o":"m 631 1019 l 631 1015 l 124 1 l 122 0 l 119 0 l 47 0 q 43 1 46 0 l 43 6 l 547 1013 l 193 1013 q 129 999 158 1011 q 82 965 104 988 q 54 897 60 942 q 74 910 63 907 q 97 909 86 913 q 116 896 108 906 q 124 872 124 886 q 111 842 124 853 q 83 832 99 832 q 56 842 68 832 q 43 872 43 853 q 85 980 43 939 q 193 1021 126 1021 l 626 1021 q 628 1019 626 1019 l 631 1019 z "},"8":{"ha":674,"x_min":43,"x_max":631,"o":"m 382 583 q 480 550 435 575 q 558 486 525 525 q 611 398 592 447 q 631 293 631 349 q 608 179 631 232 q 544 86 585 126 q 451 23 504 46 q 338 0 397 0 q 223 23 276 0 q 129 86 169 46 q 66 179 89 126 q 43 293 43 232 q 63 398 43 349 q 115 486 82 447 q 194 550 149 525 q 292 583 239 575 q 222 611 254 592 q 167 659 190 631 q 130 724 143 688 q 117 800 117 760 q 134 886 117 846 q 181 956 151 926 q 251 1003 211 986 q 338 1021 292 1021 q 423 1003 383 1021 q 492 956 463 986 q 540 886 522 926 q 557 800 557 846 q 544 724 557 760 q 508 659 531 688 q 452 611 485 631 q 382 583 419 592 m 196 728 q 207 673 196 699 q 237 628 218 647 q 282 599 256 610 q 338 588 308 588 q 392 599 367 588 q 437 628 418 610 q 467 673 456 647 q 478 728 478 699 l 478 872 q 467 927 478 901 q 437 972 456 953 q 392 1001 418 990 q 338 1013 367 1013 q 282 1001 308 1013 q 237 972 256 990 q 207 927 218 953 q 196 872 196 901 l 196 728 m 338 8 q 421 25 382 8 q 488 71 460 42 q 533 138 517 100 q 550 221 550 176 l 550 367 q 533 449 550 410 q 488 516 517 488 q 421 561 460 544 q 338 578 382 578 q 254 561 293 578 q 186 516 215 544 q 140 449 157 488 q 124 367 124 410 l 124 221 q 143 133 124 172 q 193 65 163 93 q 262 23 224 38 q 338 8 300 8 z "},"9":{"ha":674,"x_min":43,"x_max":631,"o":"m 338 1021 q 451 998 397 1021 q 544 935 504 975 q 608 841 585 894 q 631 728 631 788 l 631 293 q 608 178 631 232 q 544 85 585 125 q 451 23 504 46 q 338 0 397 0 q 186 54 243 0 q 118 200 129 108 q 83 181 106 181 q 55 193 67 181 q 43 221 43 206 q 55 250 43 238 q 83 263 67 263 q 112 250 100 263 q 124 221 124 238 q 140 135 124 175 q 184 68 156 96 q 251 24 213 40 q 338 8 290 8 q 446 33 404 8 q 510 99 488 58 q 542 190 533 139 q 550 293 550 240 l 550 599 q 475 476 531 519 q 338 435 419 432 q 223 458 276 435 q 129 520 169 481 q 66 613 89 560 q 43 728 43 665 q 66 841 43 788 q 129 935 89 894 q 223 998 169 975 q 338 1021 276 1021 m 550 654 l 550 800 q 533 882 550 843 q 488 950 517 921 q 421 996 460 979 q 338 1013 382 1013 q 254 996 293 1013 q 186 950 215 979 q 140 882 157 921 q 124 800 124 843 q 123 748 124 776 q 122 690 122 719 q 126 633 122 661 q 138 582 129 604 q 214 480 161 514 q 338 443 267 446 q 424 458 385 442 q 490 502 463 474 q 534 570 518 531 q 550 654 550 610 z "},"\u0000":{"ha":0,"x_min":0,"x_max":0,"o":""},"\r":{"ha":0,"x_min":0,"x_max":0,"o":""}," ":{"ha":435,"x_min":0,"x_max":0,"o":""},"A":{"ha":818,"x_min":43,"x_max":775,"o":"m 775 6 l 775 1 q 771 0 772 0 l 699 0 q 694 4 694 0 l 592 290 l 153 290 l 53 4 q 47 0 50 0 q 43 6 43 1 q 173 371 118 218 q 266 631 228 524 q 328 803 304 738 q 365 908 351 869 q 385 964 379 947 q 394 988 392 981 q 398 1000 396 996 q 404 1018 400 1004 q 407 1020 407 1019 q 410 1021 407 1021 q 414 1018 408 1021 l 775 6 m 157 297 l 590 297 l 374 903 l 157 297 z "},"B":{"ha":674,"x_min":43,"x_max":631,"o":"m 342 588 q 454 563 401 586 q 546 499 507 539 q 608 406 585 458 q 631 293 631 353 q 613 192 631 240 q 563 106 594 144 q 488 42 532 68 q 394 6 444 15 l 390 6 q 386 5 388 6 q 382 4 385 4 q 377 3 379 4 q 372 1 375 1 l 369 1 q 362 1 367 1 q 351 0 357 0 l 342 0 l 338 0 l 119 0 l 47 0 q 46 1 46 0 l 43 1 l 43 4 l 43 1018 q 46 1019 44 1019 q 47 1021 47 1021 l 119 1021 l 264 1021 l 265 1021 q 351 1003 311 1021 q 422 956 392 986 q 469 886 451 926 q 486 800 486 846 q 474 728 486 763 q 440 665 461 693 q 388 617 418 638 q 324 588 358 597 l 338 588 l 342 588 m 124 1013 l 124 588 l 264 588 q 319 599 293 588 q 363 628 344 610 q 393 673 382 647 q 404 728 404 699 l 404 872 l 404 874 q 378 955 404 919 q 311 1006 351 990 q 289 1011 300 1010 q 272 1013 278 1013 l 265 1013 l 264 1013 l 124 1013 m 550 217 l 550 221 l 550 367 q 549 379 550 374 q 508 494 546 443 q 411 567 469 546 q 369 576 388 574 q 342 578 350 578 l 338 578 l 265 578 l 264 578 l 124 578 l 124 8 l 338 8 l 349 8 q 465 50 415 13 q 536 146 515 88 q 547 190 546 171 q 550 217 549 210 z "},"C":{"ha":674,"x_min":43,"x_max":631,"o":"m 626 226 q 631 221 631 226 q 626 186 629 204 q 619 151 624 171 q 603 111 614 132 q 537 35 582 69 q 410 0 492 0 q 364 3 385 0 q 324 14 343 7 l 321 15 l 319 15 q 209 83 260 36 q 122 194 158 129 q 64 340 85 260 q 43 511 43 421 q 64 681 43 600 q 122 828 85 763 q 210 939 160 893 q 321 1006 261 985 l 324 1006 q 410 1021 363 1021 q 537 986 492 1021 q 603 910 582 951 q 619 869 614 889 q 626 833 624 849 q 631 800 629 815 q 626 796 631 796 q 622 800 622 796 l 622 808 q 621 819 622 813 q 618 833 619 825 q 610 867 615 849 q 596 907 606 886 q 569 946 585 926 q 532 980 554 965 q 479 1003 510 994 q 410 1013 449 1013 q 325 999 364 1013 q 322 998 324 999 q 319 997 321 997 q 247 953 278 981 q 195 892 217 925 q 159 828 174 860 q 136 771 144 796 q 131 756 133 764 q 126 743 129 749 q 124 717 125 731 q 124 692 124 704 l 124 689 l 124 331 q 124 304 124 317 q 126 278 125 292 q 131 265 129 272 q 136 250 133 258 q 154 203 143 229 q 181 151 165 178 q 218 98 197 124 q 267 53 239 72 q 331 21 296 33 q 410 8 365 8 q 533 42 489 8 q 596 115 576 75 q 610 153 606 135 q 618 188 615 172 q 622 221 621 204 q 626 226 622 226 z "},"D":{"ha":674,"x_min":43,"x_max":631,"o":"m 631 535 l 631 511 l 631 486 l 631 478 q 629 463 629 472 l 629 453 q 626 438 626 449 q 626 433 626 435 q 625 429 625 432 q 624 415 625 418 q 622 404 624 408 q 621 397 622 401 q 619 389 619 393 q 619 385 619 388 q 618 382 618 383 q 617 372 617 376 q 615 360 617 367 q 613 353 613 358 q 610 339 610 342 q 608 333 608 336 q 606 328 608 331 q 604 322 604 325 q 603 317 604 319 q 599 306 603 311 q 596 297 599 300 q 592 285 596 290 q 589 276 592 282 q 585 264 589 272 q 583 258 583 263 q 573 235 578 247 q 561 213 568 224 l 561 210 q 557 203 558 207 q 553 196 556 199 q 550 193 553 194 q 547 186 549 189 q 542 179 544 183 l 542 178 q 419 48 490 96 q 264 0 347 0 l 47 0 q 43 4 43 0 l 43 1018 q 46 1019 44 1019 q 47 1021 47 1021 l 119 1021 l 264 1021 q 420 973 347 1021 q 542 844 493 925 l 542 842 q 550 828 549 835 l 553 826 q 557 819 556 822 q 561 811 558 815 l 561 810 q 573 785 568 797 q 583 763 578 774 q 585 757 583 758 q 588 751 588 754 q 590 744 589 747 q 591 740 590 742 q 592 736 592 739 q 597 724 594 733 q 598 720 597 722 q 599 715 599 718 q 603 706 603 711 q 604 699 604 701 q 606 693 604 696 q 608 688 608 690 q 610 682 608 685 q 613 668 610 679 q 615 661 613 664 q 617 650 617 656 q 618 639 617 644 q 619 635 618 638 q 619 631 619 633 q 622 617 622 626 q 624 606 624 613 q 625 592 625 603 q 626 588 625 589 q 626 583 626 586 q 629 568 626 574 l 629 560 q 631 543 629 549 l 631 535 m 550 692 q 535 794 550 746 q 493 883 519 843 q 429 953 467 924 q 349 999 392 983 q 264 1013 308 1013 l 124 1013 l 124 8 l 264 8 q 307 12 286 8 q 349 22 328 15 q 429 67 392 38 q 493 138 467 97 q 535 227 519 178 q 550 331 550 276 l 550 332 l 550 692 z "},"E":{"ha":529,"x_min":43,"x_max":486,"o":"m 481 8 q 486 4 486 8 q 481 0 486 0 l 119 0 l 47 0 q 46 1 46 0 q 43 3 43 1 l 43 4 l 43 1018 q 46 1019 44 1019 q 47 1021 47 1021 l 119 1021 l 481 1021 q 486 1018 486 1021 q 481 1013 486 1013 l 124 1013 l 124 514 l 338 514 q 340 511 340 514 q 338 507 340 507 l 124 507 l 124 8 l 481 8 z "},"F":{"ha":529,"x_min":43,"x_max":486,"o":"m 481 1021 q 486 1018 486 1021 q 481 1013 486 1013 l 124 1013 l 124 514 l 338 514 q 340 511 340 514 q 338 507 340 507 l 124 507 l 124 4 l 124 1 q 119 0 122 0 l 47 0 q 46 1 46 0 q 43 3 43 1 l 43 4 l 43 1018 q 46 1019 44 1019 q 47 1021 47 1021 l 119 1021 l 481 1021 z "},"G":{"ha":747,"x_min":43,"x_max":703,"o":"m 701 513 q 703 511 703 511 l 703 4 l 701 1 q 699 0 701 0 l 626 0 q 624 1 624 0 l 622 4 l 622 165 q 615 139 619 151 q 603 111 610 126 q 537 35 582 69 q 410 0 492 0 q 324 15 363 0 l 321 15 l 319 15 q 209 83 260 36 q 122 194 158 129 q 64 340 85 260 q 43 511 43 421 q 64 681 43 600 q 122 828 85 763 q 210 939 160 893 q 321 1006 261 985 l 324 1007 q 364 1017 343 1014 q 410 1021 385 1021 q 483 1011 451 1021 q 537 986 514 1001 q 576 951 560 971 q 603 910 592 931 q 621 860 615 885 q 629 821 626 836 q 661 840 640 840 q 691 829 679 840 q 703 800 703 818 q 691 772 703 783 q 661 761 679 761 q 634 772 646 761 q 622 800 622 783 l 622 808 q 621 819 622 813 q 618 833 619 825 q 610 867 615 849 q 596 907 606 886 q 569 946 585 926 q 532 980 554 965 q 479 1003 510 994 q 410 1013 449 1013 q 325 999 364 1013 q 322 998 324 999 q 319 997 321 997 q 247 953 278 981 q 195 892 217 925 q 159 828 174 860 q 136 771 144 796 q 131 756 133 764 q 126 743 129 749 q 124 717 125 731 q 124 692 124 704 l 124 332 l 124 331 q 124 303 124 317 q 126 279 125 290 q 131 266 128 272 q 136 250 133 260 q 181 151 150 206 q 217 98 196 124 q 267 53 239 72 q 330 21 294 33 q 410 8 365 8 q 533 42 489 8 q 596 115 576 75 q 619 188 615 156 q 622 221 622 204 l 622 507 l 410 507 q 404 511 404 507 q 410 514 404 514 l 626 514 l 699 514 l 700 514 q 701 513 701 514 z "},"H":{"ha":674,"x_min":43,"x_max":631,"o":"m 629 1019 q 631 1018 631 1018 l 631 4 l 631 3 q 629 1 629 1 q 628 0 628 0 l 626 0 l 554 0 q 550 1 553 0 l 550 4 l 550 507 l 124 507 l 124 4 l 124 1 q 119 0 122 0 l 47 0 q 46 1 46 0 q 43 3 43 1 l 43 4 l 43 1018 q 46 1019 44 1019 q 47 1021 47 1021 l 119 1021 q 124 1019 122 1021 l 124 1018 l 124 514 l 550 514 l 550 1018 l 550 1019 q 554 1021 553 1021 l 626 1021 l 628 1021 l 629 1019 z "},"I":{"ha":167,"x_min":43,"x_max":124,"o":"m 124 1019 l 124 1018 l 124 4 l 124 1 q 119 0 122 0 l 47 0 q 46 1 46 0 q 43 3 43 1 l 43 4 l 43 1018 q 46 1019 44 1019 q 47 1021 47 1021 l 119 1021 q 124 1019 122 1021 z "},"J":{"ha":601,"x_min":42,"x_max":557,"o":"m 557 1019 l 557 1018 l 557 293 q 539 192 557 240 q 490 106 521 144 q 416 42 458 68 q 324 6 374 15 l 318 6 q 315 5 317 6 q 311 4 313 4 q 306 3 308 4 q 300 1 303 1 l 297 1 q 288 1 293 1 q 279 0 283 0 l 271 0 l 264 0 q 137 35 182 0 q 71 111 92 69 q 46 186 50 151 q 43 221 42 204 q 55 249 43 238 q 83 261 67 261 q 112 249 100 261 q 124 221 124 238 q 112 193 124 206 q 83 181 100 181 q 54 194 65 181 q 56 188 54 189 q 78 115 58 158 q 103 76 88 94 q 142 42 119 57 q 194 17 164 26 q 264 8 224 8 l 276 8 q 392 51 342 13 q 464 147 442 89 q 475 190 472 171 q 478 217 478 210 l 478 221 l 478 293 l 478 1018 q 479 1019 478 1019 q 481 1021 481 1021 l 554 1021 q 557 1019 556 1021 z "},"K":{"ha":674,"x_min":43,"x_max":631,"o":"m 631 6 l 631 1 q 628 0 629 0 l 626 0 l 554 0 l 551 0 q 550 1 550 0 l 318 469 l 124 131 l 124 4 l 124 1 q 119 0 122 0 l 47 0 l 46 0 l 46 1 l 43 1 l 43 4 l 43 1018 q 46 1019 44 1019 q 47 1021 47 1021 l 119 1021 q 124 1019 122 1021 l 124 1018 l 124 146 l 314 479 l 333 514 l 624 1019 q 629 1021 624 1021 q 631 1015 631 1019 l 361 543 l 631 6 z "},"L":{"ha":529,"x_min":43,"x_max":486,"o":"m 481 8 q 486 4 486 8 q 481 0 486 0 l 119 0 l 47 0 q 46 1 46 0 q 43 3 43 1 l 43 4 l 43 1018 q 46 1019 44 1019 q 47 1021 47 1021 l 119 1021 q 124 1019 122 1021 l 124 1018 l 124 8 l 481 8 z "},"M":{"ha":890,"x_min":43,"x_max":847,"o":"m 846 1019 q 847 1018 847 1018 l 847 4 l 847 3 q 846 1 846 1 q 844 0 844 0 l 771 0 q 768 1 769 0 l 768 4 l 768 993 l 450 104 l 435 63 l 414 4 l 414 1 q 411 0 411 1 l 410 0 l 408 0 l 407 0 l 407 1 q 406 4 406 4 l 404 4 l 53 993 l 53 4 q 47 0 53 0 q 43 4 43 0 l 43 1018 l 43 1019 l 46 1019 l 46 1021 l 47 1021 l 119 1021 q 124 1018 124 1021 l 444 118 l 768 1018 l 768 1019 l 769 1019 l 769 1021 l 771 1021 l 844 1021 q 846 1019 846 1021 z "},"N":{"ha":674,"x_min":43,"x_max":631,"o":"m 631 1018 l 631 4 l 631 1 l 629 1 l 629 0 l 626 0 l 554 0 l 553 0 l 553 1 l 550 1 l 53 1000 l 53 4 q 47 0 53 0 q 43 4 43 0 l 43 1018 l 43 1019 l 46 1019 l 46 1021 l 47 1021 l 119 1021 l 122 1021 l 124 1019 l 622 21 l 622 1018 q 626 1021 622 1021 q 631 1018 631 1021 z "},"O":{"ha":818,"x_min":43,"x_max":775,"o":"m 775 535 l 775 511 l 775 486 l 775 478 q 772 463 775 467 l 772 453 q 772 446 772 450 q 771 438 771 442 l 771 429 q 769 422 769 425 q 769 415 769 418 q 768 404 768 411 q 765 398 765 401 q 764 390 765 394 l 764 382 q 762 371 763 376 q 758 360 761 365 q 758 356 758 358 q 757 351 757 354 q 756 345 756 349 q 754 339 756 342 q 751 333 751 336 q 750 328 751 331 q 749 323 750 325 q 749 318 749 321 q 746 311 747 314 q 744 306 744 308 q 742 297 742 300 q 739 290 740 293 q 738 285 738 288 q 735 276 735 279 q 732 270 733 274 q 729 264 731 267 q 728 262 729 263 q 728 258 728 261 q 717 235 722 247 q 706 213 713 224 l 706 210 q 701 203 703 207 q 696 194 699 199 l 696 193 q 691 186 693 189 q 688 179 689 183 l 686 178 q 565 48 636 96 q 410 0 493 0 q 253 48 325 0 q 132 179 182 96 q 127 187 129 183 q 122 194 125 190 l 122 196 q 117 203 119 199 q 113 210 115 207 l 113 213 q 90 261 100 235 q 90 263 90 263 q 89 264 89 263 q 86 271 88 268 q 83 276 85 274 q 83 281 83 279 q 82 285 82 282 q 79 290 81 288 q 76 297 78 293 q 76 301 76 300 q 75 306 75 303 q 72 311 74 308 q 71 318 71 314 q 69 323 69 321 q 68 328 69 325 q 67 333 67 331 q 64 339 67 336 q 63 345 64 342 q 63 351 63 349 q 61 356 61 354 q 60 360 61 358 q 57 372 57 367 q 56 382 57 376 q 54 390 54 383 q 53 404 53 396 q 50 415 50 408 q 49 429 49 418 q 48 433 49 431 q 47 438 47 435 q 46 451 47 449 l 46 463 q 43 478 46 472 l 43 486 l 43 511 l 43 535 l 43 543 q 46 560 46 549 l 46 568 q 47 583 47 574 q 48 588 47 586 q 49 592 49 589 q 50 606 49 603 q 53 617 50 613 q 54 631 53 625 q 56 639 54 636 q 57 649 57 644 q 60 660 57 654 q 61 665 61 663 q 63 671 61 668 q 63 676 63 674 q 64 682 64 679 q 67 688 67 685 q 68 693 67 690 q 69 698 69 696 q 71 703 69 700 q 72 710 71 707 q 75 715 74 713 q 76 720 75 718 q 76 724 76 722 q 79 731 78 728 q 82 736 81 733 q 83 740 82 739 q 83 744 83 742 q 86 751 85 747 q 89 757 88 754 q 90 763 90 758 q 106 795 99 779 q 122 826 114 811 q 124 828 124 826 q 247 968 172 915 q 410 1021 322 1021 q 565 973 493 1021 q 686 844 636 925 q 691 836 689 840 q 696 828 693 832 l 696 826 q 713 795 706 811 q 728 763 721 779 q 728 760 728 761 q 729 757 729 758 q 732 751 731 754 q 735 744 733 747 q 735 740 735 742 q 738 736 736 739 q 739 731 738 733 q 742 724 740 728 q 744 715 742 724 q 746 710 744 713 q 749 703 747 707 q 749 698 749 700 q 750 693 750 696 q 751 688 751 690 q 754 682 751 685 q 756 676 756 679 q 757 671 756 674 q 758 666 757 668 q 758 661 758 664 q 762 650 761 656 q 764 639 763 644 l 764 631 q 765 624 765 626 q 768 617 765 621 q 769 606 768 610 q 769 599 769 603 q 771 592 769 596 l 771 583 q 772 576 771 579 q 772 568 772 572 l 772 560 q 775 542 775 554 l 775 535 m 694 689 l 694 692 q 679 794 694 746 q 638 883 664 843 q 574 953 611 924 q 493 999 536 983 q 451 1009 472 1006 q 410 1013 431 1013 q 367 1009 388 1013 q 325 999 346 1006 q 244 953 281 983 q 181 883 207 924 q 139 794 154 843 q 124 692 124 746 l 124 689 l 124 331 q 139 227 124 276 q 181 138 154 178 q 244 67 207 97 q 324 22 281 38 l 325 22 q 410 8 365 8 q 493 22 453 8 l 494 22 q 574 67 538 38 q 638 138 611 97 q 679 227 664 178 q 694 331 694 276 l 694 689 z "},"P":{"ha":674,"x_min":43,"x_max":631,"o":"m 339 1021 q 452 998 399 1021 q 545 935 506 975 q 608 841 585 894 q 631 728 631 788 q 613 626 631 674 q 563 540 594 578 q 488 475 531 501 q 394 439 444 449 l 390 439 q 385 438 388 439 q 381 438 383 438 q 375 437 378 438 q 369 436 372 436 l 365 436 q 354 435 358 436 l 339 435 l 338 435 l 124 435 l 124 4 l 124 1 q 119 0 122 0 l 47 0 q 46 1 46 0 q 43 3 43 1 l 43 4 l 43 438 l 43 1018 l 43 1019 q 46 1020 46 1019 q 47 1021 46 1021 l 338 1021 l 339 1021 m 550 654 l 550 800 q 549 813 550 807 q 508 928 546 876 q 411 1000 469 979 q 369 1010 388 1008 q 342 1013 350 1013 l 338 1013 l 124 1013 l 124 443 l 338 443 l 340 443 l 349 443 q 465 485 415 446 q 536 582 515 524 q 547 626 546 607 q 550 653 549 646 l 550 654 z "},"Q":{"ha":818,"x_min":43,"x_max":775,"o":"m 775 535 l 775 511 l 775 486 l 775 479 q 775 470 775 475 q 772 463 775 465 l 772 453 q 772 446 772 450 q 771 438 771 442 l 771 429 q 769 421 769 425 q 768 414 769 417 l 768 404 q 765 397 765 401 q 764 389 765 393 l 764 382 q 762 372 763 376 q 758 360 761 367 q 758 357 758 358 q 757 353 757 356 q 756 346 756 349 q 754 339 756 343 q 751 333 751 336 q 750 328 751 331 q 749 323 750 325 q 749 318 749 321 q 746 311 747 314 q 744 306 744 308 q 742 297 742 303 q 739 290 740 293 q 738 285 738 288 q 735 276 735 282 q 732 271 733 274 q 729 264 731 268 q 728 262 729 263 q 728 258 728 261 l 707 213 q 706 210 706 213 q 696 196 700 201 l 696 194 q 691 187 693 190 q 688 179 689 183 q 583 61 643 107 q 450 4 522 15 q 483 -3 465 1 q 519 -17 500 -7 q 596 -83 561 -37 q 631 -211 631 -128 q 619 -238 631 -226 q 590 -250 607 -250 q 562 -238 574 -250 q 550 -211 550 -226 q 562 -181 550 -193 q 590 -169 574 -169 q 608 -174 600 -169 q 622 -185 615 -178 q 583 -79 615 -117 q 515 -24 551 -42 q 445 -3 478 -6 q 410 0 413 0 q 253 48 325 0 q 132 179 182 96 q 127 187 129 183 q 122 194 125 190 l 122 196 q 117 203 119 200 q 113 210 115 207 l 113 213 q 101 235 106 224 q 90 261 97 247 q 89 264 89 263 q 86 271 88 268 q 83 276 85 274 q 83 281 83 279 q 82 285 82 283 q 79 290 81 288 q 76 297 78 293 q 76 301 76 300 q 75 306 75 303 q 72 312 74 308 q 71 318 71 315 q 68 328 68 324 q 67 333 67 331 q 64 339 67 336 q 63 346 64 343 q 61 353 63 349 q 60 360 61 358 q 57 372 57 367 q 56 382 57 376 q 54 389 54 383 q 53 397 54 393 q 53 404 53 401 q 50 414 50 408 q 49 429 49 418 q 48 433 49 432 q 47 438 47 435 q 46 453 47 449 l 46 463 q 46 470 46 465 q 43 479 46 475 l 43 486 l 43 511 l 43 535 l 43 542 q 46 551 46 546 q 46 560 46 556 l 46 568 q 47 583 47 574 q 48 588 47 586 q 49 592 49 589 q 50 608 49 603 q 53 617 50 613 q 53 624 53 621 q 54 632 54 628 q 55 635 54 633 q 56 639 56 638 q 57 650 57 644 q 60 661 57 656 q 61 668 61 664 q 64 682 64 679 q 67 688 67 685 q 68 693 67 690 q 69 699 69 696 q 71 706 69 703 q 72 710 71 708 q 75 715 74 713 q 76 721 75 718 q 76 726 76 724 q 79 731 78 729 q 82 736 81 733 q 83 740 82 739 q 83 744 83 742 q 86 751 85 747 q 89 757 88 754 q 90 763 90 758 q 106 795 99 779 q 122 826 114 811 l 124 828 q 127 836 125 832 q 132 844 129 840 q 255 973 183 925 q 410 1021 326 1021 q 565 973 493 1021 q 686 844 636 925 q 691 836 689 840 q 696 828 693 832 l 696 826 q 728 763 715 797 q 728 760 728 761 q 729 757 729 758 q 732 751 731 754 q 735 744 733 747 q 735 740 735 742 q 738 736 736 739 q 739 731 738 733 q 742 726 740 729 q 744 715 742 724 q 746 710 744 713 q 749 706 747 708 q 749 699 749 703 q 750 693 750 696 q 751 688 751 690 q 754 682 751 685 q 756 675 756 679 q 757 667 756 671 q 758 665 757 665 q 758 661 758 664 q 762 650 761 656 q 764 639 763 644 l 764 632 q 765 624 765 628 q 768 617 765 621 l 768 608 q 769 600 769 604 q 771 592 769 596 l 771 583 q 772 576 771 579 q 772 568 772 572 l 772 560 q 775 551 775 556 q 775 542 775 546 l 775 535 m 694 692 q 679 794 694 746 q 638 883 664 843 q 574 953 611 924 q 493 999 536 983 q 410 1013 453 1013 q 325 999 365 1013 q 244 953 281 983 q 181 883 207 924 q 139 794 154 843 q 124 692 124 746 l 124 332 l 124 331 q 139 227 124 276 q 181 138 154 178 q 244 67 207 97 q 324 22 281 38 l 325 22 q 367 12 346 15 q 410 8 388 8 q 451 12 431 8 q 493 22 472 15 l 494 22 q 574 67 538 38 q 638 138 611 97 q 679 227 664 178 q 694 331 694 276 l 694 332 l 694 692 z "},"R":{"ha":674,"x_min":43,"x_max":631,"o":"m 494 481 l 631 6 q 629 1 631 4 q 628 0 628 0 l 626 0 l 554 0 q 550 4 550 0 l 424 449 q 409 444 417 446 q 394 439 401 442 l 390 439 q 386 438 388 439 q 382 438 385 438 q 372 436 375 438 l 369 436 q 362 435 367 436 q 351 435 357 435 l 342 435 l 338 435 l 124 435 l 124 4 l 124 1 q 119 0 122 0 l 47 0 q 46 1 46 0 q 43 3 43 1 l 43 4 l 43 1018 l 43 1019 q 46 1020 46 1019 q 47 1021 46 1021 l 338 1021 l 342 1021 q 454 996 401 1019 q 546 933 507 972 q 608 840 585 893 q 631 728 631 788 q 594 585 631 649 q 494 481 557 521 m 333 1014 l 333 1015 l 333 1014 m 333 1015 l 333 1018 l 333 1015 m 481 499 q 536 582 519 533 q 547 624 544 606 q 550 651 549 643 l 550 654 l 550 800 l 550 803 q 549 813 550 810 q 508 928 546 876 q 411 1000 469 979 q 369 1010 388 1008 q 342 1013 350 1013 l 338 1013 l 124 1013 l 124 443 l 338 443 l 339 443 l 349 443 q 425 463 390 444 q 431 465 428 464 q 438 467 435 465 q 440 469 439 469 q 443 471 442 469 q 447 473 444 472 q 451 476 449 474 q 456 479 456 481 q 461 483 458 481 q 467 486 464 485 q 471 490 469 488 q 476 494 474 493 q 481 499 478 496 z "},"S":{"ha":601,"x_min":43,"x_max":558,"o":"m 557 265 l 557 261 l 557 257 l 557 251 q 535 144 556 188 q 486 71 515 101 q 414 21 458 42 q 304 0 369 0 l 303 0 l 300 0 q 215 11 251 0 q 152 40 179 22 q 106 81 125 58 q 75 129 88 104 q 56 176 63 153 q 47 217 50 199 q 43 257 43 238 q 55 285 43 274 q 83 297 67 297 q 112 285 100 297 q 124 257 124 274 q 112 228 124 240 q 83 217 100 217 q 54 231 65 217 q 54 225 54 228 q 56 219 54 222 q 65 178 58 200 q 83 132 72 156 q 113 86 96 108 q 157 47 131 64 q 218 19 183 29 q 300 8 253 8 q 313 9 303 8 q 340 13 322 10 q 356 15 347 14 q 374 19 364 17 q 459 85 432 39 q 486 192 486 132 q 474 268 486 229 q 440 344 463 307 q 381 415 417 382 q 299 471 346 447 q 278 478 297 471 q 233 499 260 485 q 174 534 206 513 q 115 587 143 556 q 67 660 86 618 q 43 754 47 701 l 43 763 l 43 764 l 43 769 l 43 772 q 72 895 43 849 q 136 969 100 942 q 204 1006 164 992 q 299 1021 244 1021 l 300 1021 q 385 1010 349 1021 q 449 981 422 999 q 495 940 476 963 q 526 893 514 917 q 544 845 538 868 q 554 804 551 822 q 557 764 558 783 l 557 763 q 546 735 557 747 q 518 724 535 724 q 489 735 500 724 q 478 764 478 747 q 489 792 478 781 q 518 804 500 804 q 547 792 535 804 q 546 803 547 799 q 537 843 543 821 q 519 889 531 865 q 489 935 507 913 q 444 974 471 957 q 383 1002 418 992 q 300 1013 347 1013 l 297 1013 q 284 1012 293 1013 q 263 1008 275 1011 q 249 1007 256 1007 q 235 1004 242 1007 q 144 938 174 985 q 115 831 115 890 q 127 753 115 793 q 162 676 139 713 q 220 606 185 639 q 303 550 256 574 q 323 542 304 549 q 369 522 342 536 q 427 488 396 508 q 485 437 458 467 q 533 368 513 407 q 557 279 553 329 q 558 273 558 276 q 557 265 557 269 z "},"T":{"ha":601,"x_min":43,"x_max":557,"o":"m 554 1021 q 557 1018 557 1021 q 554 1013 557 1013 l 340 1013 l 340 4 l 340 1 q 338 0 339 0 l 264 0 q 263 1 263 0 q 261 3 261 1 l 261 4 l 261 1013 l 47 1013 q 43 1018 43 1013 q 47 1021 43 1021 l 264 1021 l 338 1021 l 554 1021 z "},"U":{"ha":674,"x_min":43,"x_max":631,"o":"m 626 1021 q 631 1018 631 1021 l 631 764 l 631 293 q 618 197 631 239 q 585 124 606 156 q 538 72 564 93 q 483 36 511 50 q 430 15 456 22 q 383 5 404 8 q 350 1 363 1 q 338 0 338 0 q 223 23 276 0 q 129 86 169 46 q 66 179 89 126 q 43 293 43 232 l 43 1018 q 46 1019 44 1019 q 47 1021 47 1021 l 119 1021 q 124 1019 122 1021 l 124 1018 l 124 221 q 140 138 124 176 q 186 71 157 100 q 254 25 215 42 q 338 8 293 8 l 349 8 q 382 13 361 8 q 427 23 401 15 q 479 43 453 31 q 531 78 506 57 q 577 128 557 99 q 610 199 597 158 q 622 293 622 240 l 622 764 l 622 1018 q 626 1021 622 1021 z "},"V":{"ha":818,"x_min":43,"x_max":776,"o":"m 772 1021 q 775 1015 776 1018 l 414 4 l 414 1 l 413 1 q 411 0 411 0 l 410 0 l 408 0 l 407 0 l 407 1 l 404 1 l 43 1015 l 43 1019 q 44 1020 44 1019 q 46 1021 44 1021 l 47 1021 l 119 1021 q 124 1018 124 1021 l 444 118 l 768 1018 q 772 1021 768 1021 z "},"W":{"ha":1181,"x_min":43,"x_max":1138,"o":"m 1133 1021 q 1136 1015 1138 1018 l 775 4 q 772 0 775 1 l 771 0 l 769 0 l 768 1 l 768 4 l 590 499 l 450 104 l 418 18 l 414 4 q 411 1 414 1 l 411 0 l 410 0 l 408 0 l 407 0 l 407 1 l 406 1 q 404 4 404 1 l 43 1015 l 43 1019 q 44 1020 44 1019 q 46 1021 44 1021 l 47 1021 l 119 1021 q 124 1018 124 1021 l 444 118 l 585 511 l 404 1015 l 404 1018 l 407 1018 l 407 1019 l 407 1021 l 408 1021 l 410 1021 l 481 1021 l 771 1021 q 775 1019 772 1021 l 775 1015 l 631 611 l 807 118 l 1129 1018 q 1133 1021 1131 1021 m 488 1013 l 626 624 l 765 1013 l 488 1013 z "},"X":{"ha":529,"x_min":43,"x_max":486,"o":"m 296 539 l 486 6 q 485 1 486 4 q 481 0 485 0 l 410 0 q 404 4 408 0 l 236 474 q 133 320 171 399 q 78 175 96 242 q 63 107 67 138 q 56 53 58 76 q 53 4 53 26 q 47 0 53 0 q 43 4 43 0 q 46 49 43 4 q 67 164 49 94 q 124 318 85 233 q 235 483 163 403 l 43 1015 l 43 1019 q 44 1020 44 1019 q 46 1021 44 1021 l 47 1021 l 119 1021 q 124 1018 124 1021 l 292 547 q 394 701 358 622 q 450 846 431 779 q 466 914 461 882 q 474 969 471 946 q 478 1018 476 996 q 481 1021 478 1021 q 486 1018 486 1021 q 483 972 486 1017 q 463 857 481 926 q 406 703 444 788 q 296 539 367 618 z "},"Y":{"ha":525,"x_min":50,"x_max":483,"o":"m 479 1021 q 482 1019 481 1019 q 481 1015 483 1018 l 300 535 l 300 4 l 300 3 q 299 1 299 1 q 297 0 297 0 l 224 0 q 222 1 222 0 q 221 3 221 1 l 221 4 l 221 539 l 50 1015 l 50 1019 q 54 1021 50 1021 l 126 1021 q 131 1018 128 1021 l 297 549 l 474 1018 q 479 1021 474 1021 z "},"Z":{"ha":529,"x_min":43,"x_max":486,"o":"m 444 189 q 474 177 461 189 q 486 150 486 165 q 463 63 486 93 q 411 19 439 33 q 383 9 396 13 q 360 3 371 6 q 338 0 347 0 l 119 0 l 47 0 l 46 0 l 46 1 l 43 1 l 43 4 l 43 6 l 403 1013 l 193 1013 l 188 1013 q 181 1012 185 1013 q 171 1011 176 1011 q 147 1005 160 1008 q 122 994 135 1001 q 79 960 99 983 q 54 897 60 938 q 83 911 64 911 q 112 900 100 911 q 124 872 124 889 q 112 844 124 857 q 83 832 100 832 q 55 844 67 832 q 43 872 43 857 q 67 958 43 928 q 118 1001 90 988 q 169 1019 146 1017 q 193 1021 192 1021 l 410 1021 l 481 1021 l 483 1021 l 485 1021 l 485 1019 q 486 1018 485 1018 l 486 1015 l 125 8 l 338 8 l 343 8 q 360 11 346 8 q 381 16 369 13 q 408 26 393 19 q 451 60 431 38 q 476 124 471 83 q 444 110 465 110 q 417 121 429 110 q 404 150 404 132 q 417 177 404 165 q 444 189 429 189 z "},"a":{"ha":674,"x_min":43,"x_max":631,"o":"m 631 293 l 631 4 l 631 3 q 629 1 629 1 q 628 0 628 0 l 626 0 l 554 0 q 550 1 553 0 l 550 4 l 550 165 q 529 111 544 142 q 464 35 510 69 q 338 0 418 0 l 332 0 l 324 0 q 306 1 317 1 l 303 1 q 292 4 299 4 q 288 5 289 4 q 283 6 286 6 l 279 6 q 185 42 229 15 q 110 106 142 68 q 61 192 79 144 q 43 293 43 240 q 66 406 43 353 q 128 499 89 458 q 219 563 167 539 q 332 588 272 586 l 338 588 l 342 588 q 458 560 404 585 q 550 494 511 536 l 550 583 l 550 585 q 554 588 553 588 l 626 588 l 628 588 q 629 585 629 586 q 631 583 631 583 l 631 293 m 550 221 l 550 367 q 533 449 550 411 q 488 516 517 488 q 421 561 460 544 q 338 578 382 578 q 254 561 293 578 q 186 516 215 544 q 140 449 157 488 q 124 367 124 411 l 124 221 l 124 219 q 124 207 124 215 q 126 188 125 199 q 138 146 128 171 q 208 50 157 88 q 325 8 258 13 l 338 8 q 408 17 378 8 q 460 42 438 26 q 497 76 482 57 q 522 115 513 94 q 546 185 542 153 q 550 221 550 217 z "},"b":{"ha":674,"x_min":43,"x_max":631,"o":"m 342 588 q 454 563 401 586 q 546 499 507 539 q 608 406 585 458 q 631 293 631 353 q 613 192 631 240 q 563 106 594 144 q 488 42 532 68 q 394 6 444 15 l 390 6 q 386 5 388 6 q 382 4 385 4 q 372 1 375 4 l 368 1 q 360 1 364 1 q 353 0 357 0 l 342 0 l 338 0 q 210 35 256 0 q 144 111 164 69 q 133 139 138 126 q 124 165 128 151 l 124 4 l 124 1 q 119 0 122 0 l 47 0 q 46 1 46 0 q 43 3 43 1 l 43 4 l 43 1018 q 46 1019 44 1019 q 47 1021 47 1021 l 119 1021 q 124 1019 122 1021 l 124 1018 l 124 494 q 216 560 163 536 q 332 588 269 585 l 338 588 l 342 588 m 536 147 q 547 190 546 171 q 550 217 549 210 l 550 221 l 550 367 q 533 449 550 410 q 488 516 517 488 q 421 561 460 544 q 338 578 382 578 q 254 561 293 578 q 186 516 215 544 q 140 449 157 488 q 124 367 124 410 l 124 293 l 124 221 l 124 213 q 124 201 124 208 q 126 188 125 194 q 135 153 129 172 q 151 115 140 135 q 176 76 161 94 q 214 42 192 57 q 267 17 236 26 q 338 8 297 8 l 349 8 q 465 51 415 13 q 536 147 515 89 z "},"c":{"ha":601,"x_min":43,"x_max":557,"o":"m 554 226 q 557 221 557 226 q 553 186 556 204 q 545 151 550 171 q 529 111 540 132 q 464 35 510 69 q 338 0 418 0 l 332 0 l 324 0 q 306 1 317 1 l 303 1 q 292 4 299 4 q 288 5 289 4 q 283 6 286 6 l 279 6 q 185 42 229 15 q 110 106 142 68 q 61 192 79 144 q 43 293 43 240 q 61 395 43 347 q 110 481 79 443 q 185 545 142 519 q 279 582 229 571 l 283 582 q 288 583 286 582 q 292 583 289 583 q 297 584 294 583 q 303 585 300 585 q 313 586 308 585 q 324 588 318 588 l 332 588 l 338 588 q 409 578 378 588 q 464 552 440 568 q 503 517 488 536 q 529 476 519 497 q 545 435 540 454 q 553 400 550 415 q 557 367 556 382 q 546 338 557 350 q 518 326 535 326 q 489 338 500 326 q 478 367 478 350 q 489 395 478 383 q 518 407 500 407 q 547 393 536 407 l 547 400 q 539 433 544 414 q 522 472 533 453 q 460 545 503 513 q 338 578 418 578 l 335 578 l 325 578 q 208 536 258 575 q 138 439 158 497 q 126 397 128 415 q 124 369 125 378 l 124 367 l 124 221 q 124 208 124 217 q 126 188 125 200 q 138 146 128 171 q 208 50 157 88 q 325 8 258 13 l 338 8 q 408 17 378 8 q 460 42 438 26 q 497 76 482 57 q 522 115 513 94 q 538 154 533 135 q 546 189 543 174 q 550 221 549 206 q 554 226 550 226 z "},"d":{"ha":674,"x_min":43,"x_max":631,"o":"m 631 293 l 631 4 l 631 3 q 629 1 629 1 q 628 0 628 0 l 626 0 l 554 0 q 550 1 553 0 l 550 4 l 550 165 q 529 111 544 142 q 464 35 510 69 q 338 0 418 0 l 332 0 l 324 0 q 314 1 318 0 q 306 1 310 1 l 303 1 q 292 4 299 4 q 288 5 289 4 q 283 6 286 6 l 279 6 q 185 42 229 15 q 110 106 142 68 q 61 192 79 144 q 43 293 43 240 q 66 406 43 353 q 128 499 89 458 q 219 563 167 539 q 332 588 272 586 l 338 588 l 342 588 q 458 560 404 585 q 550 494 511 536 l 550 1018 l 550 1019 q 554 1021 553 1021 l 626 1021 l 628 1021 l 629 1019 q 631 1018 631 1018 l 631 293 m 550 221 l 550 367 q 533 449 550 411 q 488 516 517 488 q 421 561 460 544 q 338 578 382 578 q 254 561 293 578 q 186 516 215 544 q 140 449 157 488 q 124 367 124 410 l 124 221 l 124 219 q 124 207 124 215 q 126 188 125 199 q 138 146 128 171 q 208 50 157 88 q 325 8 258 13 l 338 8 q 408 17 378 8 q 460 42 438 26 q 497 76 482 57 q 522 115 513 94 q 545 183 540 151 q 550 221 550 215 z "},"e":{"ha":601,"x_min":43,"x_max":557,"o":"m 518 263 q 546 250 535 263 q 557 221 557 238 q 553 186 556 204 q 545 151 550 171 q 529 111 540 132 q 464 35 510 69 q 338 0 418 0 l 332 0 l 324 0 q 314 1 318 0 q 306 1 310 1 l 303 1 q 292 4 299 4 q 288 5 289 4 q 283 6 286 6 l 279 6 q 185 42 229 15 q 110 106 142 68 q 61 192 79 144 q 43 293 43 240 q 61 395 43 347 q 110 481 79 443 q 185 545 142 519 q 279 582 229 571 l 283 582 q 288 583 286 582 q 292 583 289 583 q 297 584 294 583 q 303 585 300 585 l 304 585 q 314 586 310 585 q 324 588 318 588 l 332 588 l 338 588 q 360 585 347 588 q 411 568 383 581 q 463 524 439 554 q 486 438 486 494 q 463 352 486 383 q 411 307 439 321 q 383 297 396 300 q 360 292 371 293 q 338 290 347 290 l 331 290 q 324 289 328 290 q 314 286 319 288 q 292 282 306 285 q 265 272 279 279 q 217 231 239 258 q 196 150 196 203 q 217 67 196 96 q 265 26 239 39 q 307 12 288 15 q 333 8 326 8 l 338 8 q 408 17 378 8 q 460 42 438 26 q 497 76 482 57 q 522 115 513 94 q 540 158 533 138 q 547 194 546 179 q 518 181 536 181 q 489 193 500 181 q 478 221 478 206 q 489 250 478 238 q 518 263 500 263 m 138 147 q 181 78 153 108 q 244 29 208 47 q 205 74 222 44 q 188 150 188 103 q 211 235 188 204 q 263 279 235 265 q 290 290 276 286 q 314 296 303 293 q 338 297 326 297 l 343 297 q 360 300 353 297 q 381 306 368 303 q 408 317 393 308 q 456 357 435 329 q 478 438 478 385 q 456 519 478 490 q 408 561 435 547 q 360 576 382 574 q 338 578 339 578 l 333 578 l 325 578 q 208 538 258 575 q 138 442 158 500 q 126 396 128 415 q 124 369 125 376 l 124 367 l 124 221 l 124 219 q 124 207 124 215 q 126 188 125 199 q 138 147 128 171 z "},"f":{"ha":529,"x_min":43,"x_max":486,"o":"m 486 872 q 474 844 486 857 q 444 832 461 832 q 417 844 429 832 q 404 872 404 857 q 417 900 404 889 q 444 911 429 911 q 474 900 464 911 q 460 943 471 922 q 419 991 447 969 q 338 1013 390 1013 l 335 1013 q 327 1013 332 1013 q 314 1011 322 1013 q 292 1005 306 1008 q 265 994 279 1001 q 235 974 249 988 q 222 958 228 967 q 214 943 217 950 q 199 902 203 921 q 196 875 196 883 l 196 872 l 196 728 l 196 588 l 410 588 q 414 583 414 588 q 410 578 414 578 l 196 578 l 196 4 l 196 3 q 194 1 194 1 q 193 0 193 0 l 119 0 q 117 1 118 0 l 117 4 l 117 578 l 47 578 q 43 583 43 578 q 47 588 43 588 l 117 588 l 117 728 q 119 774 117 749 q 127 820 122 794 q 143 874 132 846 q 167 925 153 900 q 203 971 182 950 q 254 1005 225 992 q 321 1021 283 1018 l 338 1021 q 422 997 392 1021 q 467 946 453 974 q 484 896 482 918 q 486 872 486 874 z "},"g":{"ha":674,"x_min":43,"x_max":631,"o":"m 629 585 q 631 583 631 583 l 631 -137 q 613 -240 631 -192 q 563 -326 594 -287 q 488 -390 532 -364 q 394 -426 444 -417 l 390 -426 q 386 -427 388 -426 q 382 -428 385 -428 q 372 -429 375 -428 l 369 -429 q 360 -430 364 -429 q 351 -431 357 -431 l 342 -431 l 338 -431 q 210 -396 256 -431 q 144 -319 164 -361 q 126 -271 132 -294 q 118 -232 119 -247 q 83 -250 104 -250 q 55 -238 67 -250 q 43 -211 43 -226 q 55 -181 43 -193 q 83 -169 67 -169 q 112 -181 100 -169 q 124 -211 124 -193 l 124 -219 q 124 -230 124 -224 q 126 -243 125 -236 q 135 -278 129 -258 q 151 -317 140 -297 q 176 -356 161 -336 q 214 -390 192 -375 q 267 -413 236 -404 q 338 -422 297 -422 l 349 -422 q 465 -380 415 -418 q 536 -283 515 -342 q 547 -241 546 -260 q 550 -214 549 -222 l 550 -211 l 550 -137 l 550 165 q 529 111 544 142 q 464 35 510 69 q 338 0 418 0 l 332 0 l 324 0 q 314 1 318 0 q 306 1 310 1 l 303 1 q 292 4 299 4 q 288 5 289 4 q 283 6 286 6 l 279 6 q 185 42 229 15 q 110 106 142 68 q 61 192 79 144 q 43 293 43 240 q 66 406 43 353 q 128 499 89 458 q 219 563 167 539 q 332 588 272 586 l 338 588 q 455 563 400 588 q 550 494 510 539 l 550 583 l 550 585 q 554 588 553 588 l 626 588 l 628 588 q 629 585 629 586 m 550 221 l 550 367 q 533 449 550 410 q 488 516 517 488 q 421 561 460 544 q 338 578 382 578 q 254 561 293 578 q 186 516 215 544 q 140 449 157 488 q 124 367 124 410 l 124 221 l 124 219 q 124 207 124 215 q 126 188 125 199 q 138 147 128 171 q 208 51 158 89 q 325 8 258 13 l 338 8 q 408 17 378 8 q 460 42 438 26 q 497 76 482 57 q 522 115 513 94 q 546 184 542 153 q 550 221 550 215 z "},"h":{"ha":529,"x_min":43,"x_max":486,"o":"m 265 588 q 351 570 311 588 q 422 522 392 553 q 469 452 451 492 q 486 367 486 413 l 486 4 l 485 1 q 481 0 485 0 l 410 0 q 407 1 407 0 l 404 4 l 404 438 q 365 536 404 496 q 269 578 326 576 l 264 578 l 256 578 q 244 577 251 578 q 231 575 238 576 q 197 567 217 572 q 158 553 178 563 q 141 543 149 547 q 124 532 133 539 l 124 4 l 124 1 q 119 0 122 0 l 47 0 l 46 0 l 46 1 q 43 3 43 1 l 43 4 l 43 1018 q 46 1019 44 1019 q 47 1021 47 1021 l 119 1021 q 124 1019 122 1021 l 124 1018 l 124 542 q 139 551 131 547 q 154 560 147 556 q 194 575 175 569 q 229 583 214 581 q 254 587 244 586 q 264 588 264 588 l 265 588 z "},"i":{"ha":167,"x_min":43,"x_max":124,"o":"m 124 585 l 124 583 l 124 4 l 124 1 q 119 0 122 0 l 47 0 q 46 1 46 0 q 43 3 43 1 l 43 4 l 43 583 q 46 585 44 585 l 46 588 l 47 588 l 119 588 q 124 585 122 588 m 83 724 q 55 735 67 724 q 43 764 43 747 q 55 792 43 781 q 83 804 67 804 q 112 792 100 804 q 124 764 124 781 q 112 735 124 747 q 83 724 100 724 z "},"j":{"ha":457,"x_min":43,"x_max":414,"o":"m 414 583 l 414 -137 q 404 -234 414 -192 q 379 -308 394 -276 q 344 -360 364 -339 q 303 -394 324 -381 q 288 -403 296 -400 q 272 -410 281 -407 l 272 -411 q 271 -412 271 -412 q 268 -414 269 -414 q 265 -415 265 -415 l 264 -415 q 258 -417 263 -417 q 256 -419 257 -419 q 254 -421 256 -419 q 250 -422 251 -421 q 244 -424 247 -422 l 240 -424 q 235 -426 238 -426 q 229 -428 233 -428 q 222 -429 224 -428 l 217 -429 l 210 -429 q 206 -431 208 -431 l 193 -431 q 106 -408 136 -431 q 63 -357 76 -385 q 52 -330 56 -343 q 46 -306 49 -317 q 43 -282 43 -293 q 55 -253 43 -265 q 83 -242 67 -242 q 112 -253 100 -242 q 124 -282 124 -265 q 112 -310 124 -299 q 83 -322 100 -322 q 56 -310 65 -322 q 69 -353 58 -332 q 112 -401 83 -379 q 193 -422 140 -422 l 201 -422 q 212 -422 206 -422 q 226 -419 218 -421 q 247 -413 235 -417 q 269 -403 258 -410 q 271 -401 271 -403 q 274 -401 272 -401 q 276 -400 275 -400 q 279 -396 276 -401 l 281 -396 q 282 -395 282 -396 q 283 -394 282 -394 q 286 -392 283 -394 l 290 -387 l 292 -386 q 293 -383 293 -385 q 296 -382 293 -382 q 297 -379 297 -381 q 300 -375 300 -379 l 303 -375 l 303 -374 q 306 -368 306 -371 l 307 -367 q 311 -361 308 -365 l 311 -360 q 314 -353 314 -357 q 324 -328 321 -340 q 331 -304 328 -315 q 333 -282 333 -292 l 333 -137 l 333 583 l 333 585 q 338 588 335 588 l 410 588 q 411 585 411 586 q 414 583 414 583 m 374 724 q 345 735 357 724 q 333 764 333 747 q 345 792 333 781 q 374 804 357 804 q 402 792 390 804 q 414 764 414 781 q 402 735 414 747 q 374 724 390 724 z "},"k":{"ha":457,"x_min":43,"x_max":414,"o":"m 411 1 q 410 0 410 0 l 338 0 q 333 1 335 0 l 333 4 l 333 275 q 302 286 318 282 q 264 290 286 290 q 179 313 210 290 q 133 365 149 336 q 128 378 131 372 q 124 390 126 383 l 124 4 l 124 1 q 119 0 122 0 l 47 0 q 46 1 46 0 q 43 3 43 1 l 43 4 l 43 1018 q 46 1019 44 1019 q 47 1021 47 1021 l 119 1021 q 124 1019 122 1021 l 124 1018 l 124 526 q 139 539 131 533 q 154 550 147 544 q 169 559 161 556 q 185 567 176 563 q 186 568 185 568 q 189 569 188 569 q 194 571 192 571 q 199 575 194 572 q 203 576 201 575 q 207 578 206 576 q 213 581 210 578 q 217 582 215 581 l 222 582 q 228 583 224 583 q 235 585 233 583 l 240 585 l 247 585 q 251 588 249 588 l 264 588 q 351 564 321 588 q 394 513 381 540 q 411 461 407 485 q 414 438 414 449 q 402 409 414 421 q 374 397 390 397 q 345 410 357 397 q 333 438 333 422 q 345 466 333 454 q 374 478 357 478 q 401 465 390 478 q 388 508 399 488 q 345 556 374 535 q 264 578 317 578 l 256 578 q 244 577 251 578 q 231 575 238 576 q 210 569 222 572 q 188 560 199 567 l 186 560 l 186 557 q 183 556 185 557 q 181 556 182 556 q 178 553 181 556 q 176 551 178 551 q 174 550 174 550 l 171 547 q 169 546 171 546 q 167 543 167 543 l 165 542 q 163 540 164 540 q 161 539 161 540 q 160 535 160 536 q 157 532 157 535 l 154 529 q 151 525 151 526 l 150 522 q 147 520 147 521 q 146 518 147 519 l 146 515 q 144 513 144 514 q 140 508 143 511 q 135 494 138 501 q 131 479 132 486 q 124 450 124 461 q 124 438 122 443 l 124 432 q 126 417 124 428 q 131 393 129 406 q 140 368 133 381 q 183 319 156 340 q 264 297 211 297 q 351 274 321 297 q 394 222 381 250 q 407 193 400 206 l 407 192 l 407 190 q 408 189 407 189 q 410 174 410 182 q 414 158 411 165 l 414 150 l 414 33 l 414 4 l 414 1 l 411 1 z "},"l":{"ha":167,"x_min":43,"x_max":124,"o":"m 124 1019 l 124 1018 l 124 4 l 124 1 q 119 0 122 0 l 47 0 q 46 1 46 0 q 43 3 43 1 l 43 4 l 43 1018 q 46 1019 44 1019 q 47 1021 47 1021 l 119 1021 q 124 1019 122 1021 z "},"m":{"ha":890,"x_min":43,"x_max":847,"o":"m 626 588 q 713 570 672 588 q 783 522 753 553 q 830 452 813 492 q 847 367 847 413 l 847 4 l 847 3 q 846 1 846 1 q 844 0 844 0 l 771 0 q 768 1 769 0 l 768 4 l 768 438 q 728 536 768 496 q 631 578 689 576 l 626 578 q 616 578 625 578 q 592 575 607 578 q 559 568 578 572 q 519 553 540 564 q 481 527 500 542 q 449 490 463 513 q 476 432 465 464 q 486 367 486 400 l 486 4 l 485 1 q 481 0 485 0 l 410 0 q 407 1 408 0 l 404 4 l 404 438 q 365 536 404 496 q 269 578 326 576 l 264 578 l 256 578 q 244 577 251 578 q 231 575 238 576 q 197 567 217 572 q 158 553 178 563 q 141 543 149 547 q 124 532 133 539 l 124 4 l 124 1 q 119 0 122 0 l 47 0 q 46 1 46 0 l 43 1 l 43 4 l 43 367 l 43 583 q 46 585 44 585 l 46 588 l 47 588 l 119 588 q 124 585 122 588 l 124 583 l 124 542 q 139 551 131 547 q 154 560 147 556 q 194 575 175 569 q 229 583 214 581 q 264 588 247 588 l 265 588 q 367 563 321 588 q 443 497 413 539 q 477 534 458 519 q 515 560 496 549 q 556 575 536 569 q 590 583 575 581 q 615 587 606 586 q 626 588 625 588 z "},"n":{"ha":529,"x_min":43,"x_max":486,"o":"m 265 588 q 351 570 311 588 q 422 522 392 553 q 469 452 451 492 q 486 367 486 413 l 486 4 l 485 1 q 481 0 485 0 l 410 0 q 407 1 407 0 l 404 4 l 404 438 q 365 536 404 496 q 269 578 326 576 l 264 578 l 256 578 q 244 577 251 578 q 231 575 238 576 q 197 567 215 572 q 158 553 178 563 q 141 543 149 547 q 124 532 133 539 l 124 4 l 124 1 q 119 0 122 0 l 47 0 q 46 1 46 0 l 43 1 l 43 4 l 43 583 q 46 585 44 585 l 46 588 l 47 588 l 119 588 q 124 585 122 588 l 124 583 l 124 542 q 139 551 131 547 q 154 560 147 556 q 194 575 175 569 q 229 583 214 581 q 254 587 244 586 q 264 588 264 588 l 265 588 z "},"o":{"ha":674,"x_min":43,"x_max":631,"o":"m 342 588 q 454 563 401 586 q 546 499 507 539 q 608 406 585 458 q 631 293 631 353 q 608 181 631 233 q 546 88 585 128 q 454 25 507 49 q 342 0 401 1 l 338 0 l 332 0 q 219 25 272 1 q 128 88 167 49 q 66 181 89 128 q 43 293 43 233 q 66 406 43 353 q 128 499 89 458 q 219 563 167 539 q 332 588 272 586 l 338 588 l 342 588 m 338 8 q 421 25 382 8 q 488 71 460 42 q 533 138 517 100 q 550 221 550 176 l 550 367 q 533 449 550 410 q 488 516 517 488 q 421 561 460 544 q 338 578 382 578 q 254 561 293 578 q 186 516 215 544 q 140 449 157 488 q 124 367 124 410 l 124 221 q 140 138 124 176 q 186 71 157 100 q 254 25 215 42 q 338 8 293 8 z "},"p":{"ha":674,"x_min":43,"x_max":631,"o":"m 342 588 q 454 563 401 586 q 546 499 507 539 q 608 406 585 458 q 631 293 631 353 q 613 192 631 240 q 563 106 594 144 q 488 42 531 68 q 394 6 444 15 l 389 6 q 381 4 388 4 q 375 3 378 4 q 369 1 372 1 l 365 1 q 360 1 363 1 q 354 0 357 0 l 340 0 l 338 0 q 210 35 256 0 q 144 111 164 69 q 133 139 138 126 q 124 165 128 151 l 124 -428 l 124 -429 q 119 -431 122 -431 l 47 -431 q 46 -429 46 -431 l 43 -429 l 43 -428 l 43 583 q 46 585 44 585 l 46 588 l 47 588 l 119 588 q 124 585 122 588 l 124 583 l 124 494 q 216 560 163 536 q 332 588 269 585 l 338 588 l 342 588 m 550 221 l 550 367 q 533 449 550 410 q 488 516 517 488 q 421 561 460 544 q 338 578 382 578 q 254 561 293 578 q 186 516 215 544 q 140 449 157 488 q 124 367 124 411 l 124 221 l 124 213 q 124 201 124 208 q 126 188 125 194 q 135 153 129 172 q 151 115 140 135 q 176 76 161 94 q 214 42 192 57 q 267 17 236 26 q 338 8 297 8 l 339 8 l 349 8 q 465 51 415 13 q 536 147 515 89 q 547 192 546 172 q 550 219 549 211 l 550 221 z "},"q":{"ha":674,"x_min":43,"x_max":631,"o":"m 629 585 q 631 583 631 583 l 631 -428 q 629 -429 631 -429 q 628 -431 628 -431 l 626 -431 l 554 -431 q 550 -429 553 -431 l 550 -428 l 550 165 q 529 111 544 142 q 464 35 510 69 q 338 0 418 0 l 335 0 l 319 0 q 315 1 317 0 q 311 1 313 1 l 304 1 q 299 3 301 1 q 293 4 296 4 q 285 6 289 4 l 279 6 q 186 42 229 15 q 111 106 143 68 q 61 192 79 144 q 43 293 43 240 q 66 406 43 353 q 128 499 89 458 q 219 563 167 539 q 332 588 272 586 l 338 588 l 342 588 q 458 560 404 585 q 550 494 511 536 l 550 583 l 550 585 q 554 588 553 588 l 626 588 l 628 588 q 629 585 629 586 m 550 221 l 550 293 l 550 367 q 533 449 550 410 q 488 516 517 488 q 421 561 460 544 q 338 578 382 578 q 254 561 293 578 q 186 516 215 544 q 140 449 157 488 q 124 367 124 410 l 124 221 l 124 219 q 124 207 124 215 q 126 188 125 199 q 138 146 128 171 q 208 50 157 88 q 325 8 258 13 l 335 8 l 338 8 q 408 17 378 8 q 460 42 438 26 q 497 76 482 57 q 522 115 513 94 q 538 154 533 135 q 546 189 543 174 q 550 221 549 206 z "},"r":{"ha":457,"x_min":43,"x_max":414,"o":"m 414 438 q 402 410 414 422 q 374 397 390 397 q 345 410 357 397 q 333 438 333 422 q 345 467 333 454 q 374 479 357 479 q 401 467 389 479 q 388 508 399 488 q 345 556 374 535 q 264 578 317 578 l 256 578 q 244 577 251 578 q 231 575 238 576 q 210 569 222 572 q 188 560 199 567 l 186 560 l 186 557 q 183 556 185 557 q 181 556 182 556 q 178 554 181 554 q 174 550 178 550 l 171 547 q 169 546 171 546 q 167 543 167 543 l 165 542 q 163 540 164 540 q 161 539 161 540 q 160 535 160 536 q 157 532 157 535 l 154 529 q 151 525 151 526 l 150 522 q 145 516 147 519 q 140 508 143 513 q 127 467 129 486 q 124 442 125 449 l 124 438 l 124 293 l 124 4 l 124 1 q 119 0 122 0 l 47 0 q 46 1 46 0 q 43 3 43 1 l 43 4 l 43 583 q 46 585 44 585 l 46 588 l 47 588 l 119 588 q 124 585 122 588 l 124 583 l 124 526 q 139 539 131 533 q 154 550 147 544 q 169 559 161 556 q 185 567 176 563 q 186 568 185 568 q 189 569 188 569 q 194 574 193 572 l 196 574 q 199 575 197 574 q 203 576 201 575 q 207 578 206 576 q 213 581 210 578 q 217 582 215 581 l 222 582 q 228 583 224 583 q 235 585 233 583 l 240 585 q 247 588 244 585 l 251 588 l 264 588 q 351 564 321 588 q 394 513 381 540 q 411 462 408 485 q 414 438 414 439 z "},"s":{"ha":457,"x_min":43,"x_max":414,"o":"m 414 150 l 414 144 q 397 83 411 108 q 361 42 382 58 q 308 13 340 25 q 229 0 276 0 l 228 0 q 122 23 160 0 q 67 75 85 46 q 46 125 49 103 q 43 150 43 147 q 55 177 43 165 q 83 189 67 189 q 112 177 100 189 q 124 150 124 165 q 112 121 124 132 q 83 110 100 110 q 56 119 65 110 q 63 100 58 111 q 74 78 67 89 q 125 30 89 51 q 228 8 161 8 q 247 9 229 8 q 290 18 265 10 q 342 53 325 29 q 360 104 360 76 q 327 185 360 144 q 228 254 294 226 q 195 263 224 254 q 133 292 167 271 q 72 347 100 313 q 43 436 44 382 l 43 438 l 43 439 l 43 442 q 60 503 44 479 q 96 546 75 528 q 149 575 117 563 q 228 588 181 588 l 229 588 q 335 564 297 588 q 390 513 372 540 q 411 462 408 485 q 414 438 414 439 q 402 410 414 422 q 374 397 390 397 q 345 410 357 397 q 333 438 333 422 q 345 467 333 454 q 374 479 357 479 q 401 467 389 479 q 394 487 399 476 q 383 508 390 497 q 332 557 368 536 q 229 578 296 578 l 228 578 q 210 578 219 579 q 167 569 190 575 q 114 535 131 558 q 97 483 97 511 q 130 403 97 444 q 229 333 163 361 q 262 324 233 333 q 324 295 290 315 q 385 240 357 275 q 414 153 413 206 l 414 150 z "},"t":{"ha":383,"x_min":43,"x_max":340,"o":"m 338 588 q 340 583 340 588 q 338 578 340 578 l 196 578 l 196 4 l 196 3 q 194 1 194 1 q 193 0 193 0 l 119 0 q 117 1 118 0 l 117 4 l 117 578 l 47 578 q 43 583 43 578 q 47 588 43 588 l 117 588 l 117 728 l 117 800 l 117 803 q 158 856 144 831 q 179 901 172 881 q 183 919 182 911 q 186 933 185 928 q 188 944 188 939 q 188 946 188 946 q 189 949 189 946 l 193 949 l 194 949 q 196 944 196 946 l 196 800 l 196 728 l 196 588 l 338 588 z "},"u":{"ha":529,"x_min":43,"x_max":486,"o":"m 481 588 q 486 583 486 588 l 486 221 q 451 94 486 139 q 375 28 417 49 q 299 3 333 7 q 264 0 265 0 q 178 17 218 0 q 108 65 139 35 q 60 135 78 94 q 43 221 43 175 l 43 583 q 46 585 44 585 l 46 588 l 47 588 l 119 588 q 124 585 122 588 l 124 583 l 124 150 q 134 96 124 121 q 163 51 144 71 q 207 20 182 32 q 261 8 232 8 l 264 8 q 274 9 265 8 q 297 13 282 10 q 332 19 313 15 q 372 35 351 24 q 410 60 392 44 q 444 99 429 76 q 469 151 460 121 q 478 221 478 181 l 478 583 q 481 588 478 588 z "},"v":{"ha":619,"x_min":43,"x_max":576,"o":"m 557 563 q 572 538 568 551 q 576 511 576 525 q 573 483 576 496 q 567 458 569 469 q 557 436 561 446 l 340 1 q 339 0 339 0 l 338 0 l 335 0 l 333 1 l 43 582 l 43 585 q 46 588 46 588 l 47 588 l 119 588 q 121 587 121 588 q 122 586 121 586 q 124 585 122 585 l 374 85 l 550 439 q 558 463 554 450 q 565 485 561 474 q 568 511 568 497 q 556 552 568 533 q 508 576 544 571 q 521 547 521 564 q 510 519 521 531 q 481 507 499 507 q 453 519 465 507 q 442 547 442 531 q 453 576 442 564 q 481 588 465 588 q 528 581 510 588 q 557 563 546 574 z "},"w":{"ha":981,"x_min":43,"x_max":938,"o":"m 918 563 q 933 538 929 551 q 938 511 938 525 q 934 483 938 496 q 928 458 931 469 q 918 436 922 446 l 738 75 l 731 60 l 701 1 l 701 0 l 699 0 l 696 0 q 694 1 696 1 l 518 356 l 353 26 l 340 1 q 338 0 340 0 l 335 0 l 333 1 l 43 582 l 43 585 q 46 588 46 588 l 47 588 l 119 588 q 121 587 121 588 q 122 586 121 586 q 124 585 122 585 l 374 85 l 514 367 l 407 582 q 407 585 401 582 q 410 588 407 588 l 481 588 q 528 581 510 588 q 557 563 546 574 q 572 538 568 551 q 576 511 576 525 q 569 465 576 486 q 560 438 563 444 l 735 85 l 911 439 q 919 461 915 449 q 926 485 922 472 q 929 511 929 497 q 917 552 928 533 q 869 576 906 571 q 883 547 883 567 q 872 519 883 531 q 844 507 860 507 q 815 519 826 507 q 804 547 804 531 q 815 576 804 564 q 844 588 826 588 q 918 563 896 588 m 488 578 l 554 449 q 563 474 558 457 q 568 511 568 492 q 553 556 568 535 q 488 578 538 576 z "},"x":{"ha":457,"x_min":43,"x_max":414,"o":"m 261 310 l 414 6 l 414 1 q 411 0 411 0 l 410 0 l 338 0 l 335 0 q 333 1 333 0 l 200 269 q 135 213 161 242 q 92 158 108 185 q 67 108 75 131 q 56 69 58 85 q 83 81 67 81 q 112 69 100 81 q 124 40 124 57 q 112 12 124 24 q 83 0 100 0 q 55 12 67 0 q 43 40 43 24 q 45 63 43 40 q 62 119 47 85 q 108 196 76 154 q 196 278 139 238 l 43 582 l 43 585 q 46 588 46 588 l 47 588 l 119 588 q 121 587 121 588 q 122 586 121 586 q 124 585 122 585 l 257 318 q 322 374 296 344 q 365 430 349 403 q 390 480 382 457 q 401 518 399 503 q 374 507 390 507 q 345 519 357 507 q 333 547 333 531 q 345 576 333 564 q 374 588 357 588 q 402 576 390 588 q 414 547 414 564 q 411 524 414 547 q 394 467 408 501 q 348 391 379 433 q 261 310 317 349 z "},"y":{"ha":619,"x_min":43,"x_max":576,"o":"m 557 568 q 572 543 568 557 q 576 514 576 529 q 573 488 576 500 q 567 464 569 475 q 557 442 561 451 l 414 151 l 376 78 l 340 7 l 196 -281 q 188 -303 192 -290 q 181 -326 185 -314 q 179 -351 178 -339 q 190 -392 179 -374 q 238 -417 201 -410 q 224 -387 224 -406 q 236 -358 224 -371 q 264 -346 249 -346 q 292 -358 281 -346 q 304 -387 304 -371 q 292 -415 304 -403 q 264 -428 281 -428 q 218 -421 236 -428 q 189 -403 200 -414 q 174 -378 178 -392 q 171 -351 171 -364 q 174 -324 171 -336 q 179 -300 176 -311 q 189 -276 183 -287 l 332 8 l 43 585 l 43 589 q 44 590 44 589 q 46 590 44 590 l 47 590 l 119 590 q 124 589 124 590 l 374 89 l 550 444 q 558 467 554 456 q 565 488 561 476 q 568 514 568 500 q 556 556 568 536 q 508 581 544 575 q 521 550 521 568 q 510 522 521 533 q 481 511 499 511 q 453 522 465 511 q 442 550 442 533 q 453 579 442 568 q 481 590 465 590 q 528 585 510 590 q 557 568 546 579 z "},"z":{"ha":457,"x_min":43,"x_max":414,"o":"m 374 189 q 402 177 390 189 q 414 150 414 165 q 411 125 414 147 q 394 75 408 103 q 351 24 381 47 q 265 0 321 0 l 264 0 l 47 0 l 46 0 q 43 1 46 1 l 43 4 l 43 6 l 331 578 l 193 578 q 112 556 140 578 q 69 508 83 535 q 56 465 58 488 q 83 479 67 479 q 112 467 100 479 q 124 438 124 454 q 112 410 124 422 q 83 397 100 397 q 55 410 67 397 q 43 438 43 422 q 46 462 43 439 q 63 513 49 485 q 106 564 76 540 q 193 588 136 588 l 386 588 l 410 588 l 411 588 l 411 585 l 414 585 l 414 583 l 414 582 l 126 8 l 264 8 q 345 30 317 8 q 388 78 374 51 q 401 122 399 101 q 388 113 396 115 q 374 110 381 110 q 345 121 357 110 q 333 150 333 132 q 345 177 333 165 q 374 189 357 189 z "}}}
